<?xml version="1.0"?>
<svg xmlns="http://www.w3.org/2000/svg" xmlns:xlink="http://www.w3.org/1999/xlink" version="1.1" width="320px" height="320px" viewBox="0 0 320 320"><rect x="0" y="0" width="320" height="320" fill="#ffffff" fill-opacity="1"/><path fill="#000000" fill-opacity="1" d="M11,11L74,11L74,20L11,20ZM101,11L110,11L110,20L101,20ZM119,11L128,11L128,20L119,20ZM146,11L155,11L155,20L146,20ZM191,11L218,11L218,20L191,20ZM227,11L236,11L236,20L227,20ZM245,11L308,11L308,20L245,20ZM11,20L20,20L20,29L11,29ZM65,20L74,20L74,29L65,29ZM83,20L92,20L92,29L83,29ZM101,20L110,20L110,29L101,29ZM128,20L146,20L146,29L128,29ZM164,20L182,20L182,29L164,29ZM209,20L236,20L236,29L209,29ZM245,20L254,20L254,29L245,29ZM299,20L308,20L308,29L299,29ZM11,29L20,29L20,38L11,38ZM29,29L56,29L56,38L29,38ZM65,29L74,29L74,38L65,38ZM119,29L137,29L137,38L119,38ZM146,29L173,29L173,38L146,38ZM182,29L191,29L191,38L182,38ZM218,29L227,29L227,38L218,38ZM245,29L254,29L254,38L245,38ZM263,29L290,29L290,38L263,38ZM299,29L308,29L308,38L299,38ZM11,38L20,38L20,47L11,47ZM29,38L56,38L56,47L29,47ZM65,38L74,38L74,47L65,47ZM83,38L110,38L110,47L83,47ZM119,38L128,38L128,47L119,47ZM146,38L155,38L155,47L146,47ZM173,38L182,38L182,47L173,47ZM191,38L200,38L200,47L191,47ZM245,38L254,38L254,47L245,47ZM263,38L290,38L290,47L263,47ZM299,38L308,38L308,47L299,47ZM11,47L20,47L20,56L11,56ZM29,47L56,47L56,56L29,56ZM65,47L74,47L74,56L65,56ZM92,47L101,47L101,56L92,56ZM137,47L146,47L146,56L137,56ZM182,47L227,47L227,56L182,56ZM245,47L254,47L254,56L245,56ZM263,47L290,47L290,56L263,56ZM299,47L308,47L308,56L299,56ZM11,56L20,56L20,65L11,65ZM65,56L74,56L74,65L65,65ZM83,56L101,56L101,65L83,65ZM110,56L146,56L146,65L110,65ZM155,56L182,56L182,65L155,65ZM191,56L200,56L200,65L191,65ZM209,56L218,56L218,65L209,65ZM245,56L254,56L254,65L245,65ZM299,56L308,56L308,65L299,65ZM11,65L74,65L74,74L11,74ZM83,65L92,65L92,74L83,74ZM101,65L110,65L110,74L101,74ZM119,65L128,65L128,74L119,74ZM137,65L146,65L146,74L137,74ZM155,65L164,65L164,74L155,74ZM173,65L182,65L182,74L173,74ZM191,65L200,65L200,74L191,74ZM209,65L218,65L218,74L209,74ZM227,65L236,65L236,74L227,74ZM245,65L308,65L308,74L245,74ZM92,74L119,74L119,83L92,83ZM128,74L137,74L137,83L128,83ZM182,74L191,74L191,83L182,83ZM218,74L227,74L227,83L218,83ZM11,83L56,83L56,92L11,92ZM65,83L101,83L101,92L65,92ZM110,83L119,83L119,92L110,92ZM128,83L137,83L137,92L128,92ZM146,83L164,83L164,92L146,92ZM191,83L209,83L209,92L191,92ZM236,83L245,83L245,92L236,92ZM254,83L263,83L263,92L254,92ZM272,83L281,83L281,92L272,92ZM290,83L299,83L299,92L290,92ZM20,92L29,92L29,101L20,101ZM47,92L65,92L65,101L47,101ZM74,92L83,92L83,101L74,101ZM101,92L110,92L110,101L101,101ZM119,92L128,92L128,101L119,101ZM146,92L164,92L164,101L146,101ZM173,92L182,92L182,101L173,101ZM191,92L227,92L227,101L191,101ZM236,92L245,92L245,101L236,101ZM254,92L290,92L290,101L254,101ZM11,101L38,101L38,110L11,110ZM56,101L74,101L74,110L56,110ZM83,101L92,101L92,110L83,110ZM101,101L110,101L110,110L101,110ZM128,101L182,101L182,110L128,110ZM218,101L245,101L245,110L218,110ZM254,101L281,101L281,110L254,110ZM290,101L299,101L299,110L290,110ZM11,110L56,110L56,119L11,119ZM74,110L83,110L83,119L74,119ZM119,110L137,110L137,119L119,119ZM173,110L182,110L182,119L173,119ZM191,110L200,110L200,119L191,119ZM218,110L254,110L254,119L218,119ZM281,110L308,110L308,119L281,119ZM11,119L20,119L20,128L11,128ZM65,119L110,119L110,128L65,128ZM119,119L128,119L128,128L119,128ZM146,119L155,119L155,128L146,128ZM191,119L200,119L200,128L191,128ZM209,119L218,119L218,128L209,128ZM263,119L272,119L272,128L263,128ZM281,119L299,119L299,128L281,128ZM29,128L38,128L38,137L29,137ZM47,128L65,128L65,137L47,137ZM74,128L92,128L92,137L74,137ZM137,128L155,128L155,137L137,137ZM191,128L227,128L227,137L191,137ZM254,128L272,128L272,137L254,137ZM281,128L290,128L290,137L281,137ZM11,137L29,137L29,146L11,146ZM38,137L47,137L47,146L38,146ZM65,137L74,137L74,146L65,146ZM83,137L146,137L146,146L83,146ZM155,137L164,137L164,146L155,146ZM227,137L245,137L245,146L227,146ZM254,137L281,137L281,146L254,146ZM290,137L299,137L299,146L290,146ZM83,146L92,146L92,155L83,155ZM110,146L119,146L119,155L110,155ZM137,146L146,146L146,155L137,155ZM173,146L191,146L191,155L173,155ZM200,146L209,146L209,155L200,155ZM218,146L227,146L227,155L218,155ZM245,146L254,146L254,155L245,155ZM290,146L308,146L308,155L290,155ZM38,155L47,155L47,164L38,164ZM56,155L74,155L74,164L56,164ZM83,155L119,155L119,164L83,164ZM128,155L137,155L137,164L128,164ZM146,155L164,155L164,164L146,164ZM173,155L182,155L182,164L173,164ZM191,155L218,155L218,164L191,164ZM227,155L245,155L245,164L227,164ZM290,155L299,155L299,164L290,164ZM11,164L29,164L29,173L11,173ZM92,164L101,164L101,173L92,173ZM119,164L128,164L128,173L119,173ZM146,164L164,164L164,173L146,173ZM200,164L245,164L245,173L200,173ZM254,164L272,164L272,173L254,173ZM281,164L290,164L290,173L281,173ZM11,173L38,173L38,182L11,182ZM56,173L74,173L74,182L56,182ZM128,173L155,173L155,182L128,182ZM164,173L218,173L218,182L164,182ZM236,173L245,173L245,182L236,182ZM254,173L272,173L272,182L254,182ZM299,173L308,173L308,182L299,182ZM20,182L29,182L29,191L20,191ZM56,182L65,182L65,191L56,191ZM83,182L92,182L92,191L83,191ZM101,182L110,182L110,191L101,191ZM119,182L137,182L137,191L119,191ZM164,182L173,182L173,191L164,191ZM182,182L191,182L191,191L182,191ZM200,182L209,182L209,191L200,191ZM218,182L227,182L227,191L218,191ZM245,182L254,182L254,191L245,191ZM272,182L281,182L281,191L272,191ZM299,182L308,182L308,191L299,191ZM11,191L38,191L38,200L11,200ZM47,191L56,191L56,200L47,200ZM65,191L110,191L110,200L65,200ZM119,191L128,191L128,200L119,200ZM146,191L155,191L155,200L146,200ZM173,191L182,191L182,200L173,200ZM191,191L218,191L218,200L191,200ZM236,191L245,191L245,200L236,200ZM263,191L281,191L281,200L263,200ZM290,191L299,191L299,200L290,200ZM11,200L20,200L20,209L11,209ZM38,200L65,200L65,209L38,209ZM92,200L101,200L101,209L92,209ZM137,200L155,200L155,209L137,209ZM173,200L182,200L182,209L173,209ZM200,200L227,200L227,209L200,209ZM281,200L308,200L308,209L281,209ZM11,209L20,209L20,218L11,218ZM29,209L38,209L38,218L29,218ZM47,209L56,209L56,218L47,218ZM65,209L92,209L92,218L65,218ZM110,209L128,209L128,218L110,218ZM146,209L182,209L182,218L146,218ZM218,209L245,209L245,218L218,218ZM263,209L272,209L272,218L263,218ZM290,209L308,209L308,218L290,218ZM11,218L20,218L20,227L11,227ZM29,218L38,218L38,227L29,227ZM47,218L65,218L65,227L47,227ZM74,218L83,218L83,227L74,227ZM110,218L119,218L119,227L110,227ZM173,218L182,218L182,227L173,227ZM191,218L227,218L227,227L191,227ZM245,218L254,218L254,227L245,227ZM272,218L281,218L281,227L272,227ZM290,218L308,218L308,227L290,227ZM11,227L20,227L20,236L11,236ZM29,227L56,227L56,236L29,236ZM65,227L83,227L83,236L65,236ZM101,227L119,227L119,236L101,236ZM146,227L155,227L155,236L146,236ZM191,227L218,227L218,236L191,236ZM227,227L281,227L281,236L227,236ZM83,236L92,236L92,245L83,245ZM101,236L110,236L110,245L101,245ZM119,236L137,236L137,245L119,245ZM146,236L155,236L155,245L146,245ZM191,236L218,236L218,245L191,245ZM227,236L236,236L236,245L227,245ZM263,236L290,236L290,245L263,245ZM11,245L74,245L74,254L11,254ZM83,245L110,245L110,254L83,254ZM128,245L146,245L146,254L128,254ZM155,245L164,245L164,254L155,254ZM218,245L236,245L236,254L218,254ZM245,245L254,245L254,254L245,254ZM263,245L272,245L272,254L263,254ZM290,245L299,245L299,254L290,254ZM11,254L20,254L20,263L11,263ZM65,254L74,254L74,263L65,263ZM92,254L110,254L110,263L92,263ZM119,254L137,254L137,263L119,263ZM173,254L191,254L191,263L173,263ZM200,254L209,254L209,263L200,263ZM218,254L236,254L236,263L218,263ZM263,254L272,254L272,263L263,263ZM299,254L308,254L308,263L299,263ZM11,263L20,263L20,272L11,272ZM29,263L56,263L56,272L29,272ZM65,263L74,263L74,272L65,272ZM83,263L110,263L110,272L83,272ZM119,263L128,263L128,272L119,272ZM137,263L164,263L164,272L137,272ZM200,263L272,263L272,272L200,272ZM299,263L308,263L308,272L299,272ZM11,272L20,272L20,281L11,281ZM29,272L56,272L56,281L29,281ZM65,272L74,272L74,281L65,281ZM83,272L110,272L110,281L83,281ZM146,272L164,272L164,281L146,281ZM200,272L218,272L218,281L200,281ZM245,272L299,272L299,281L245,281ZM11,281L20,281L20,290L11,290ZM29,281L56,281L56,290L29,290ZM65,281L74,281L74,290L65,290ZM83,281L128,281L128,290L83,290ZM146,281L155,281L155,290L146,290ZM164,281L200,281L200,290L164,290ZM227,281L245,281L245,290L227,290ZM263,281L272,281L272,290L263,290ZM11,290L20,290L20,299L11,299ZM65,290L74,290L74,299L65,299ZM83,290L119,290L119,299L83,299ZM137,290L146,290L146,299L137,299ZM164,290L173,290L173,299L164,299ZM182,290L191,290L191,299L182,299ZM209,290L245,290L245,299L209,299ZM254,290L272,290L272,299L254,299ZM281,290L308,290L308,299L281,299ZM11,299L74,299L74,308L11,308ZM83,299L92,299L92,308L83,308ZM101,299L119,299L119,308L101,308ZM146,299L155,299L155,308L146,308ZM173,299L182,299L182,308L173,308ZM200,299L209,299L209,308L200,308ZM227,299L236,299L236,308L227,308ZM245,299L263,299L263,308L245,308ZM272,299L299,299L299,308L272,308Z"/></svg>
